<svg width="173" height="56" viewBox="0 0 173 56" fill="none" xmlns="http://www.w3.org/2000/svg">
<g clip-path="url(#clip0_5_8)">
<path d="M54.2968 3.08917C52.7841 6.09907 49.0423 14.7327 47.8481 26.1387C47.3704 30.0199 47.9277 32.3169 46.415 33.1882L46.5743 33.6634C49.0423 32.7129 51.5103 32.0001 53.9783 31.2872L53.8987 30.7327C52.8637 30.6535 53.1026 26.6139 53.1026 24.7921C53.1026 22.8119 53.3414 20.1981 56.6056 18.7723C57.1629 18.5347 57.7998 18.2971 58.5163 18.2179V26.7723C58.5163 28.5941 58.3571 29.307 57.4017 29.8614L57.5609 30.4951C60.0289 29.9407 62.497 29.3862 65.0446 28.911L64.965 28.2773C63.93 28.2773 63.8504 27.2476 63.8504 25.7426C63.8504 19.802 63.8504 13.9407 63.8504 8.00006C63.93 4.11888 63.2931 1.66343 66.3184 0.950558V0.316895C61.7008 0.316895 57.0832 0.316895 52.5453 0.316895V0.950558C53.7395 1.02977 54.6152 1.90105 54.2968 3.08917ZM58.4367 5.94066C58.4367 8.63373 58.4367 11.1684 58.4367 13.8614C57.4017 14.0199 55.5706 14.5743 54.6152 15.1288C55.491 12.0397 56.7648 8.63373 58.4367 5.94066Z" fill="#D52A20"/>
<path d="M103.736 3.80204V24.8713C103.736 25.6634 103.497 27.1684 102.622 27.406L102.542 28.0397C107.956 28.7525 112.892 29.6238 117.828 30.9704L117.987 30.4159C117.907 29.2278 117.509 27.9605 117.271 26.6931C116.793 27.406 114.882 27.4852 113.449 27.0892C110.026 26.1387 109.15 25.4258 108.832 23.7624C108.832 19.2476 108.832 14.3367 108.832 9.82185C110.185 9.02977 112.096 9.02977 115.28 10.8515C115.28 9.26739 115.28 7.76244 115.28 6.17828H108.832V3.80204C110.663 3.08917 113.529 3.3268 116.395 4.27729C116.793 3.08917 117.43 2.13868 117.828 0.950558V0.316895C112.494 0.316895 107.239 0.316895 101.905 0.316895V0.950558C103.418 1.50501 103.657 2.21788 103.736 3.80204Z" fill="#D52A20"/>
<path d="M87.2559 3.80204V23.8417C87.2559 25.2674 87.0967 26.1387 86.3006 26.4555V27.0892C91.3162 27.0892 96.4115 27.3268 101.427 27.8813L101.507 27.2476L100.392 23.7624C98.6406 25.7426 92.3512 24.7921 92.2716 21.7822C92.2716 17.2674 92.2716 14.2575 92.2716 9.74264C93.625 8.95056 95.5357 8.95056 98.7202 10.7723C98.7202 9.18818 98.7202 7.68323 98.7202 6.09907H92.3512V3.72284C94.8192 2.93076 97.3668 3.48521 99.9144 4.19808C100.313 3.00996 100.949 2.05947 101.347 0.87135V0.316895C96.0134 0.316895 90.6793 0.316895 85.4248 0.316895V0.950558C87.0171 1.50501 87.1763 2.21788 87.2559 3.80204Z" fill="#D52A20"/>
<path d="M120.216 3.80207C120.216 11.8813 120.216 19.9605 120.216 28.0397C120.216 29.2278 120.057 30.5743 118.783 30.5743L118.544 31.1288C123.639 32.4753 128.894 34.3763 133.671 36.5942C135.104 37.0694 135.104 34.3763 134.944 33.109C133.989 17.0298 131.043 15.4456 128.018 11.0892C132.795 6.25751 132.476 2.1387 131.043 0.792166C130.247 0.158502 129.133 0.316918 127.938 0.316918C124.674 0.316918 121.729 0.316918 118.385 0.316918V0.950582C120.136 1.34662 120.216 2.29712 120.216 3.80207ZM125.311 4.03969C125.47 2.69316 128.177 2.53474 128.655 4.03969C128.814 6.81197 127.381 9.34662 125.311 10.8516C125.311 8.63375 125.311 6.33672 125.311 4.03969ZM125.311 13.5446C125.868 13.2278 126.028 12.911 126.505 12.5941C129.849 16.7922 130.327 22.2575 130.566 27.6437C130.645 28.8318 131.043 30.812 129.61 31.1288C128.496 31.0496 125.47 30.5743 125.311 29.4654C125.311 24.1585 125.311 18.7724 125.311 13.5446Z" fill="#D52A20"/>
<path d="M136.378 3.80204V33.6634C136.378 35.6436 136.06 36.7525 134.945 36.5149L134.706 37.0694C139.005 39.1288 143.703 41.6634 147.365 44.8317C149.833 46.1783 151.505 43.7228 151.505 39.0496C151.505 30.8911 148.957 24.6337 144.419 18.0595C142.827 15.7624 141.553 14.1783 141.473 13.307C141.473 6.97036 141.473 8.95056 141.473 3.88125C141.633 2.13868 142.747 1.3466 144.419 0.950558C144.499 0.950558 144.499 0.950558 144.578 0.950558C144.578 0.712934 144.578 0.554518 144.578 0.316895C132.079 0.316895 144.738 0.316895 132.238 0.316895C132.238 1.18818 132.079 0.47531 133.114 4.27729C133.671 3.56442 135.343 3.16838 136.378 3.80204ZM141.473 17.2674C142.668 19.0892 143.623 20.911 144.419 22.7327C147.444 29.9407 147.365 36.7525 147.365 38.2575C147.365 39.1288 147.126 39.3664 146.489 39.4456C145.534 39.4456 142.747 37.9407 141.553 36.2773C141.473 30.5743 141.473 22.1783 141.473 17.2674Z" fill="#D52A20"/>
<path d="M65.7607 28.1189L65.9199 28.7525C68.7064 28.2773 71.4929 27.8813 74.4386 27.6436L74.3589 27.01C73.4832 26.7723 73.722 25.3466 73.722 24.4753C73.722 18.9308 74.1997 15.2872 75.7124 11.6436C76.9862 15.208 77.5435 18.8515 77.7027 24.1585C77.7027 25.0298 77.8619 26.4555 76.9862 26.8515V27.4852C79.6134 27.2476 82.3203 27.1684 85.0272 27.0892V26.4555C83.9922 26.2971 83.9126 25.0298 83.5145 23.9209C81.6038 15.8416 81.2057 11.8813 79.295 8.15848C82.7184 3.64363 81.1261 1.50501 84.6291 0.950558V0.316895C82.3999 0.316895 79.1358 0.316895 76.9066 0.316895V0.950558C77.3843 0.950558 77.7027 1.18818 77.7823 1.98026C77.7027 4.19808 77.3843 5.22779 75.7124 6.73274C74.0405 5.22779 73.722 4.19808 73.6424 1.98026C73.6424 1.18818 74.1201 1.10897 74.5182 0.950558V0.316895C72.289 0.316895 69.0249 0.316895 66.7161 0.316895V0.950558C67.9103 1.18818 68.9452 1.82185 69.5025 3.406C70.0598 5.22779 71.0152 6.81194 72.0502 8.15848C70.4579 11.5644 69.9006 16.0001 67.5122 25.2674C67.1141 26.6931 67.1141 27.5644 65.7607 28.1189Z" fill="#D52A20"/>
<path d="M26.2724 49.8218C26.1132 49.3466 26.0336 48.7921 26.0336 48.3169C26.0336 44.9902 29.457 42.6931 32.8007 42.6931C34.7911 42.6931 36.7814 43.2476 38.0552 44.8317C51.1118 37.7822 64.7257 33.0298 86.3806 33.0298C101.109 33.0298 115.838 35.7228 127.461 41.109C139.483 47.0496 147.842 55.2872 158.112 55.2872C167.984 55.2872 172.92 47.7624 172.92 40.3169C172.841 31.7624 166.233 25.8218 159.864 25.8218C157.237 25.8218 153.256 27.1684 153.256 29.703C153.256 32.5545 157.635 36.3565 157.635 38.6535C157.635 39.8416 157.077 40.6337 156.52 41.109C155.803 41.8218 154.769 42.9308 154.769 43.8813C154.769 44.5941 155.485 45.307 156.281 45.307C156.759 45.307 157.396 45.0694 157.873 44.1981C158.908 42.5347 159.227 41.109 159.227 39.9209C159.227 38.0199 158.431 36.5941 158.431 35.2476C158.431 32.9506 160.978 32.0793 162.65 32.0793C167.347 32.0793 169.019 38.9704 169.019 41.1882C169.019 47.5248 163.208 52.0397 156.679 52.0397C149.594 52.0397 140.358 43.406 127.78 37.9407C115.439 32.5545 101.189 30.0199 88.5301 30.0199C71.7317 30.0199 58.0382 32.2377 42.9913 38.9704C41.1601 39.6832 39.1698 40.2377 37.3387 40.2377C34.4726 40.2377 32.0842 38.8912 31.6065 34.7723C31.6065 32.3961 31.6065 29.307 31.6065 25.9803C31.6065 21.1486 31.6065 15.9209 31.5269 12.4357C32.4027 15.4456 34.7115 23.0496 35.5872 26.1387C36.9406 21.5446 38.0552 16.9506 39.8863 12.4357V29.7822C39.6475 32.7129 38.3737 35.3268 37.3387 37.0694L37.4979 37.6238C40.0456 36.1981 42.9913 34.9308 46.0962 33.7426L45.937 33.2674C45.3 33.0298 44.902 32.7129 44.902 30.4159C44.902 27.1684 44.902 6.89115 44.902 3.72283C44.9816 1.98026 46.5739 1.26739 48.7234 0.792142V0.316895C44.9816 0.316895 41.7971 0.316895 37.9756 0.316895V0.950558C39.0902 1.26739 39.4883 1.74264 39.4883 2.29709C39.4883 2.69313 39.329 3.24759 39.0902 3.80204C37.896 7.12878 36.7814 10.4555 35.5872 13.7822C34.7115 10.4555 33.8357 7.20798 32.96 3.88125C32.8007 3.24759 32.7211 2.77234 32.7211 2.3763C32.7211 1.66343 33.1192 1.3466 33.9949 0.950558V0.316895H22.451V0.950558C24.0433 1.3466 25.7151 2.13868 26.5909 3.24759C26.7501 3.48521 26.9093 3.80204 26.9093 4.11887C26.989 4.99016 26.989 6.09907 26.989 7.3664C26.989 20.1981 23.5656 52.3565 10.907 52.3565C7.00598 52.3565 3.02531 48.9506 3.02531 44.0397C3.02531 38.8119 6.92637 35.3268 9.71284 34.7723C11.0663 34.4555 12.3401 35.4852 12.3401 36.8317C12.3401 38.8119 11.1459 41.9011 10.3497 45.307C10.2701 45.6238 10.1905 46.0199 10.1905 46.4159C10.1905 47.9209 10.907 49.3466 12.2605 49.3466C13.1362 49.3466 13.7731 48.9506 13.7731 48.0001C13.7731 47.208 13.2954 46.2575 12.3401 45.703C12.1012 45.2278 12.0216 44.7525 12.0216 44.2773C12.0216 42.7723 13.0566 41.1882 15.1266 39.3664C18.0723 37.0694 19.5849 34.0595 19.5849 31.8416C19.5849 30.0991 18.6295 28.8317 16.5596 28.8317C12.977 28.7525 0 34.0595 0 44.5941C0 51.2476 5.17487 56.0001 11.6236 56.0001C16.878 56.0001 22.2121 53.1486 26.2724 49.8218Z" fill="#D52A20"/>
</g>
<defs>
<clipPath id="clip0_5_8">
<rect width="173" height="56" fill="white"/>
</clipPath>
</defs>
</svg>
